Patient4_TMGait_0pt7_02_right_27_EMG.mot
version=1
nRows=30
nColumns=33
inDegrees=no
endheader
time	1LAddLong	2LGlutMax	3LGlutMed	4LIliopsoas	5LSemiMemb	6LBicFemLong	7LRecFem	8LVastMed	9LVastLat	10LGasMed	11LTibAnt	12lTibPost	13LPeroneusLong	14LSol	15LExtDigLong	16LFlexDigLong	17RAddLong	18RGlutMax	19RGlutMed	20RIliopsoas	21RSemiMemb	22RBicFemLong	23RRecFem	24RVastMed	25RVastLat	26RGasMed	27RTibAnt	28RTibPost	29RPeroneusLong	30RSol	31RExtDigLong	32RFlexDigLong
31.415	0.001984	-0.13199	0.028687	0.025787	-0.018005	0.3717	0.06073	-0.033875	0.028534	0.028229	0.045471	-0.002289	-0.52826	0.058746	-0.29053	0.000305	-0.03418	-0.11108	-0.45975	0.045624	-0.056152	0.038147	0.02182	-0.004578	0.004425	0.003052	-0.18631	-0.007019	0.039978	-0.14389	-0.001068	-0.034027
31.416	0.005798	-0.091248	0.081024	0.017242	-0.002594	0.26688	0.054779	-0.026093	0.040588	0.009003	0.007019	-0.002136	0.36255	0.14801	-0.17029	0.016327	-0.0737	-0.050354	0.039978	-0.052032	-0.066986	0.073547	0.049286	-0.015869	-0.00946	0.000305	-0.002747	-0.005341	-0.11658	-0.051575	0.000458	-0.031433
31.417	0.01297	-0.13336	-0.010834	0.009613	-0.018005	-0.28503	0.061798	0.00885	0.045624	-0.019989	-0.044403	0.001984	0.50491	0.093842	0.042572	0.018463	-0.087891	-0.068207	0.044098	-0.077667	-0.036163	0.1004	-0.009155	0.011444	0.017242	-0.011444	0.097198	-0.006104	-0.079193	0.025787	-0.00061	-0.024719
31.418	0.002441	-0.16083	-0.13748	0.007019	0.003204	-0.81528	0.068665	-0.003662	0.052338	-0.052032	-0.059052	0.004578	0.19547	-0.001221	0.13473	0.014954	-0.074005	-0.069885	0.17807	-0.099792	0.052185	0.12543	0.013885	0.024261	0.007935	-0.012054	0.028687	-0.004578	-0.020294	0.075226	-0.001221	-0.014801
31.419	0.014801	-0.13382	-0.052643	0.015717	0.031433	-1.0002	0.069733	-0.020752	0.06897	-0.043793	-0.042725	0.004425	-0.29388	-0.13687	0.15732	0.01358	-0.088196	-0.083618	0.25055	-0.13428	0.095062	0.13351	0.049744	0.010376	0.011139	-0.007324	-0.12482	0.00061	0.039063	-0.001526	0.000763	-0.013733
31.42	0.011292	-0.20355	-0.089417	0.004272	0.041809	-0.60959	0.070496	-0.007782	0.061035	0.005951	-0.036774	-0.001984	-0.31296	-0.28503	0.058594	0.005951	-0.093384	-0.12833	0.008392	-0.15243	0.039978	0.15152	0.024872	-0.028992	0.001068	-0.005798	-0.12665	-0.004578	0.13382	-0.019684	0.00061	-0.000916
31.421	0.005951	-0.21805	-0.036469	-0.00061	0.048523	-0.056763	0.085602	0.004272	0.040894	0.098724	-0.007782	0.000763	-0.29923	-0.22583	0.13672	0.001984	-0.084839	-0.16754	-0.16159	-0.22018	0.059052	0.058899	0.059357	-0.028534	0.008087	-0.007935	-0.18768	-0.006714	0.15274	0.036621	-0.001984	-0.001984
31.422	0.003815	-0.21469	-0.087128	-0.003967	0.024567	0.15915	0.10941	0.005035	0.039063	0.075073	0.006256	-0.000153	-0.029449	0.055542	0.21698	0.005646	-0.063629	-0.18265	0.076752	-0.30395	0.11215	-0.04776	0.043335	-0.027161	-0.001068	-0.008545	-0.13382	-0.014191	0.016327	0.045013	-0.001221	0.004578
31.423	0.006104	-0.22003	-0.072021	0.003204	0.017242	0.30945	0.12665	0.00824	0.033264	-0.001068	-0.002594	0.003815	0.45441	0.12802	0.15167	0.013733	-0.063171	-0.097046	-0.20325	-0.23071	0.11139	-0.085602	0.01297	-0.040131	0.003815	-0.016479	0.13519	-0.007477	-0.177	-0.026398	-0.000305	0.005798
31.424	0.010376	-0.19211	-0.062561	-0.00885	0.041809	0.30167	0.18478	0.003052	0.038605	-0.075073	-0.002441	0.007477	-0.009003	-0.057678	0.068665	0.00473	-0.050964	-0.091095	-0.38818	-0.003662	0.009003	-0.057678	0.015869	-0.084991	-0.00412	-0.011139	0.2475	-0.006104	-0.18646	-0.095215	-0.005341	0.011749
31.425	0.010834	-0.18036	-0.040283	-0.010376	0.049591	-0.09491	0.23086	-0.001831	0.041809	-0.2272	-0.028381	0.003815	0.022583	-0.072632	0.071259	-0.000916	-0.023499	-0.11597	-0.41412	0.20691	-0.054321	0.00885	0.007477	-0.10468	-0.01709	-0.009308	0.10529	-0.007019	-0.093231	-0.059509	0.000305	0.020447
31.426	-0.000153	-0.16235	0.002441	-0.001984	0.028839	-0.68329	0.20157	0.00885	0.063324	-0.25177	-0.044098	0.013428	-0.00061	-0.014191	0.059204	0.007172	-0.010834	-0.13611	-0.35873	0.23789	-0.18585	-0.006256	0.001068	-0.09903	-0.010681	-0.009613	0.030212	-0.008698	0.07843	-0.05188	-0.000305	0.019836
31.427	0.003815	-0.13443	-0.036926	0.015717	0.022736	-0.33493	0.20905	0.007782	0.059509	-0.15564	0.015106	-0.000153	-0.18265	0.019531	-0.043945	-0.005646	0.032196	-0.15381	0.071259	0.21423	-0.23468	0.016022	-0.00412	-0.13626	-0.019379	-0.010223	0.013123	-0.005035	0.19608	-0.022888	0.000916	0.024414
31.428	0.005035	-0.1297	-0.045013	0.035095	0.003967	0.019531	0.2182	0.003052	0.063171	-0.02594	0.029144	0.002747	-0.12039	0.036469	-0.17639	-0.021973	0.081635	-0.18829	-0.088196	0.075989	-0.21332	0.058441	0.010223	-0.12909	-0.023651	-0.013428	-0.048981	-0.004425	0.088654	0.08194	0.000153	0.016174
31.429	0.007324	-0.078278	0.012512	0.010986	-0.025635	0.035553	0.050659	0.005646	0.037689	-0.046082	-0.004425	0.001678	-0.0737	0.028992	-0.18692	0.004578	0.15137	-0.19058	0.383	-0.058594	0.078583	0.13123	-0.008087	-0.12238	-0.010681	-0.019684	-0.099487	-0.007477	-0.009918	0.066528	0.002747	0.026093
31.43	0.012054	-0.06073	-0.002899	0.002747	-0.025635	-0.005798	0.006409	0.012512	0.062714	-0.10605	-0.022125	-0.000763	0.15976	-0.029755	-0.080261	0.024109	0.21927	-0.1683	0.1152	-0.10193	0.29159	0.1683	0.021667	-0.13931	-0.00473	-0.023193	-0.056	-0.00824	-0.037231	0.044861	-0.004883	0.037231
31.431	0.015564	-0.079803	-0.035553	0.004272	-0.032349	-0.074463	-0.003967	0.015106	0.07431	-0.059814	-0.02533	0.031586	0.071259	-0.19775	-0.050354	0.012817	0.15488	-0.19211	0.15945	-0.12772	0.1062	0.012512	0.015717	-0.056305	0.007477	-0.019836	-0.020294	-0.003967	-0.062561	0.047607	-0.000916	0.043945
31.432	0.014343	-0.024109	-0.063019	0.022278	0.020905	-0.000916	0.076752	0.00946	0.066223	-0.017548	0.031738	0.11017	-0.20462	-0.15076	0.015411	0.018921	0.035095	-0.17303	0.62759	-0.12573	-0.05249	-0.075989	-0.050201	-0.047607	0.017853	-0.015259	-0.031128	-0.001831	-0.063324	0.033875	0.002289	0.048981
31.433	0.012665	-0.013275	-0.02182	0.00946	0.040283	0.11658	0.15106	0.006714	0.018768	0.011902	0.007172	0.038147	-0.46097	-0.22186	0.029144	0.013733	-0.038605	-0.1442	0.56534	-0.13077	-0.051575	0.10803	-0.040283	-0.089417	0.000763	-0.010834	0.088043	-0.003967	-0.11429	0.019836	-0.000916	0.047302
31.434	0.010986	-0.037689	-0.039215	0.007477	0.035248	0.099487	0.13214	0.000916	0.013885	0.011444	-0.00946	0.003967	0.03952	-0.32974	0.007629	0.014954	-0.069427	-0.22522	0.25696	-0.014038	-0.11902	0.23132	0.007782	-0.095825	-0.008698	-0.016937	0.48416	-0.000153	-0.11231	-0.058899	-0.000763	0.041809
31.435	0.010529	0.002594	-0.080261	0.01297	0.035095	0.055389	0.14664	0.004578	0.037231	0.067291	-0.009155	-0.018005	0.17212	-0.15686	0.012054	-0.003815	-0.055389	-0.21164	-0.46112	0.059357	-0.064392	0.12756	-0.001373	-0.098114	0.001373	-0.01709	0.74554	-0.003815	-0.055084	-0.12405	-0.001221	0.033264
31.436	0.007935	-0.024109	-0.10315	0.022125	0.040131	0.098419	0.17471	-0.002136	0.080566	0.11032	-0.004578	-0.037384	0.12146	-0.098724	0.076294	-0.027466	-0.026245	-0.17792	-1.0457	0.19058	-0.037537	0.14343	0.002899	-0.049438	0.006714	-0.021667	0.86212	-0.005798	-0.12054	-0.13046	-0.001068	0.023041
31.437	0.008698	-0.010376	-0.063934	0.011749	0.031128	0.12573	0.23254	-0.00473	0.050964	0.19562	0.020905	-0.043793	-0.092163	-0.072632	0.055084	0.002289	0.016022	-0.15793	-1.1769	0.11551	-0.10803	0.11688	0.019379	-0.092926	0.018311	-0.023804	0.62744	-0.007477	-0.080872	-0.13733	0.001831	0.018158
31.438	0.006866	0	-0.088043	-0.009308	0.02533	-0.034943	0.19913	0.003662	0.00824	0.2301	0.011749	-0.041504	-0.088654	0.023193	-0.018158	0.023651	0.041504	-0.15289	-0.56961	0.043335	-0.22568	0.040588	-0.022278	-0.074463	-0.00946	-0.03418	0.15793	-0.004425	0.053406	-0.14343	0.001221	0.015869
31.439	0.005798	0.014343	0.013428	-0.021362	0.020447	-0.029602	0.17303	0.011444	-0.043793	0.20233	0.025024	-0.043488	0.50293	0.27802	-0.033569	0.036774	0.020294	-0.10712	0.25787	0.019226	-0.12985	0.059967	-0.005341	-0.10269	-0.016785	-0.055847	-1.0312	-0.00351	0.068054	-0.10742	0.000153	0.010834
31.44	0.006561	-0.013428	0.065308	-0.010376	0.018005	-0.002747	0.17792	0.007477	0.053101	0.17014	-0.024872	-0.044861	0.40787	0.29388	0.021057	0.034332	-0.033875	-0.13809	0.36606	-0.044098	0.34668	0.10208	-0.001373	-0.044403	0.014343	-0.079193	-1.1261	-0.011444	0.048523	-0.0737	-0.000916	0.009766
31.441	0.003967	0.000458	0.10956	0.015564	0.027161	0.03067	0.11673	0.01358	0.005493	0.11429	-0.093994	-0.03418	-0.19196	0.1265	0.29953	0.016327	-0.042419	-0.15427	0.38559	-0.052948	0.4921	0.009613	0.010223	-0.011444	-0.000458	-0.10056	-0.69305	-0.005341	0.09903	-0.04776	-0.001221	0.013275
31.442	0.00351	-0.000916	0.047302	0.018005	0.011597	0.056915	0.042877	0.018005	0.071106	-0.086517	-0.14862	-0.028839	-0.059814	-0.013123	0.1474	-0.000916	-0.015411	-0.21362	0.42129	-0.08606	0.43304	-0.041809	-0.017548	-0.039978	0.001526	-0.15717	-0.41504	-0.004578	0.03952	-0.074768	-0.001831	0.007782
31.443	0.005188	0.00351	0.011902	-0.000763	0.021973	0.077057	0.14099	0.018311	0.097961	-0.18738	-0.16312	-0.027618	0.1976	0.062561	-0.10056	-0.000153	0.007324	-0.26688	0.041504	-0.044556	0.21759	0.046844	0.018158	-0.066376	0.004272	-0.20752	-0.20905	-0.005493	-0.029449	-0.063171	0	0.010529
31.444	-0.002441	0.0354	-0.018311	-0.017395	-0.003815	0.072021	0.25864	-0.010223	0.12695	-0.12497	-0.022736	-0.023193	0.12833	0.20905	-0.31982	0.015869	-0.042877	-0.2005	-0.3067	0.003815	-0.086517	0.15198	0.033112	-0.043182	0.015259	-0.23834	-0.08667	-0.00473	-0.033875	-0.050049	0.00061	0.014801
